<svg xmlns="http://www.w3.org/2000/svg" viewBox="0 0 823 162" width="823" height="162">
	<style>
		tspan { white-space:pre }
		.shp0 { fill: #1877f2 } 
	</style>
	<path id="Layer" class="shp0" d="M66.43 26.68C56.78 26.68 53.99 30.96 53.99 40.4L53.99 56.06L79.73 56.06L77.15 81.36L54 81.36L54 158.14L23.11 158.14L23.11 81.36L2.3 81.36L2.3 56.06L23.11 56.06L23.11 40.83C23.11 15.31 33.4 1.83 62.11 1.83C63.61 1.83 65.12 1.85 66.62 1.89C68.12 1.93 69.63 2 71.13 2.09C72.63 2.18 74.13 2.29 75.62 2.42C77.12 2.56 78.62 2.72 80.11 2.9L80.11 26.71L66.43 26.68Z" />
	<path id="Layer" fill-rule="evenodd" class="shp0" d="M81.87 103.88C81.87 75.36 95.38 53.88 123.69 53.88C139.13 53.88 148.56 61.82 153.07 71.68L153.07 56.06L182.66 56.06L182.66 158.14L153.07 158.14L153.07 142.7C148.78 152.57 139.13 160.29 123.69 160.29C95.38 160.29 81.87 138.84 81.87 110.29L81.87 103.88ZM112.75 110.75C112.75 125.97 118.32 136.05 132.69 136.05C145.35 136.05 151.78 126.83 151.78 112.25L151.78 102C151.78 87.42 145.35 78.2 132.69 78.2C118.32 78.2 112.75 88.28 112.75 103.5L112.75 110.75Z" />
	<path id="Layer" class="shp0" d="M247 53.91C259 53.91 270.37 56.49 276.59 60.77L269.73 82.65C268.13 81.89 266.48 81.21 264.81 80.63C263.13 80.05 261.42 79.55 259.69 79.16C257.96 78.76 256.21 78.46 254.45 78.25C252.69 78.05 250.91 77.94 249.14 77.93C232.41 77.93 225.14 87.58 225.14 104.1L225.14 110.1C225.14 126.62 232.43 136.27 249.14 136.27C250.91 136.26 252.69 136.15 254.45 135.95C256.21 135.74 257.96 135.44 259.69 135.04C261.42 134.65 263.13 134.15 264.81 133.57C266.48 132.99 268.13 132.31 269.73 131.55L276.59 153.42C270.37 157.71 259.01 160.29 247 160.29C210.75 160.29 194.24 140.77 194.24 109.46L194.24 104.74C194.24 73.43 210.75 53.91 247 53.91Z" />
	<path id="Layer" fill-rule="evenodd" class="shp0" d="M280.66 111L280.66 102C280.66 73.05 297.17 54 330.85 54C362.59 54 376.53 73.3 376.53 101.61L376.53 117.91L311.53 117.91C312.18 131.85 318.4 138.07 335.53 138.07C347.12 138.07 359.34 135.71 368.35 131.85L374 153C365.85 157.3 349.12 160.51 334.33 160.51C295.24 160.5 280.66 141 280.66 111ZM311.54 97.7L348.86 97.7L348.86 95.13C348.86 83.98 344.36 75.13 330.86 75.13C316.91 75.14 311.54 83.94 311.54 97.66L311.54 97.7Z" />
	<path id="Layer" fill-rule="evenodd" class="shp0" d="M491 110.32C491 138.84 477.28 160.32 449 160.32C433.56 160.32 422.84 152.6 418.55 142.73L418.55 158.17L389.39 158.17L389.39 4.8L420.27 2L420.27 70.2C424.77 61.2 434.64 53.9 449.01 53.9C477.32 53.9 491.01 75.35 491.01 103.9L491 110.32ZM460.12 103.24C460.12 88.87 454.55 78.15 439.75 78.15C427.09 78.15 420.23 87.15 420.23 101.74L420.23 112.46C420.23 127.04 427.09 136.05 439.75 136.05C454.55 136.05 460.12 125.33 460.12 110.96L460.12 103.24Z" />
	<path id="Layer" fill-rule="evenodd" class="shp0" d="M501.33 109.67L501.33 104.53C501.33 75.14 518.06 53.91 552.16 53.91C586.26 53.91 603 75.14 603 104.53L603 109.67C603 139.05 586.27 160.29 552.17 160.29C518.07 160.29 501.33 139.05 501.33 109.67ZM572.11 102.38C572.11 88.87 566.53 78.15 552.11 78.15C537.69 78.15 532.16 88.87 532.16 102.38L532.16 111.82C532.16 125.33 537.74 136.05 552.11 136.05C566.48 136.05 572.11 125.33 572.11 111.82L572.11 102.38Z" />
	<path id="Layer" fill-rule="evenodd" class="shp0" d="M613.27 109.67L613.27 104.53C613.27 75.14 630 53.91 664.1 53.91C698.2 53.91 714.93 75.14 714.93 104.53L714.93 109.67C714.93 139.05 698.2 160.29 664.1 160.29C630 160.29 613.27 139.05 613.27 109.67ZM684.05 102.38C684.05 88.87 678.47 78.15 664.1 78.15C649.73 78.15 644.16 88.87 644.16 102.38L644.16 111.82C644.16 125.33 649.73 136.05 664.1 136.05C678.47 136.05 684.05 125.33 684.05 111.82L684.05 102.38Z" />
	<path id="Layer" class="shp0" d="M757.39 104.74L787.84 56.06L820.65 56.06L788.7 106.46L821.94 158.14L789.13 158.14L757.39 108.14L757.39 158.14L726.5 158.14L726.5 4.8L757.39 2L757.39 104.74Z" />
</svg>